<?xml version="1.0" encoding="UTF-8" standalone="no"?>
<!DOCTYPE svg PUBLIC "-//W3C//DTD SVG 1.1//EN" "http://www.w3.org/Graphics/SVG/1.1/DTD/svg11.dtd">
<svg width="100%" height="100%" viewBox="0 0 481 481" version="1.1" xmlns="http://www.w3.org/2000/svg" xmlns:xlink="http://www.w3.org/1999/xlink" xml:space="preserve" xmlns:serif="http://www.serif.com/" style="fill-rule:evenodd;clip-rule:evenodd;stroke-linejoin:round;stroke-miterlimit:2;">
    <g transform="matrix(1,0,0,1,-15.960361,-15.960376)">
        <g>
            <path d="M15.966,255.5C16.126,248.524 15.991,51.715 16.035,42.5C16.049,39.558 16.164,15.525 41.501,15.966C50.785,16.128 467.014,15.985 471.507,16.039C473.86,16.068 490.838,16.273 495.102,33.607C496.068,37.532 495.965,37.506 495.965,445.5C495.965,469.573 499.271,488.832 478.392,495.101C475.171,496.069 475.158,495.965 64.5,495.965C43.444,495.965 23.982,499.18 17.255,479.583C15.804,475.356 15.966,475.253 15.966,255.5Z"/>
            <path d="M479.966,408.5C479.966,473.836 480.255,474.207 478.072,477.136C475.631,480.412 474.742,479.966 409.5,479.966C38.779,479.966 38.71,480.06 36.654,479.171C31.202,476.815 32.034,475.017 32.034,428.5C32.034,129.119 31.981,129.005 32.483,128.483C33.504,127.421 461.294,128.395 477.495,127.966C480.53,127.885 479.966,129.636 479.966,160.5L479.966,408.5Z" style="fill:white;"/>
            <path d="M479.966,105.5C479.638,109.898 481.531,111.939 477.512,111.965C477.319,111.966 35.537,111.965 35.5,111.966C29.798,112.015 32.035,109.193 32.034,103.5C32.031,38.112 31.762,37.748 33.916,34.854C36.34,31.598 37.232,32.034 106.5,32.034C467.916,32.034 467.914,32.042 470.498,31.967C479.896,31.693 479.958,41.367 479.966,42.5C479.966,42.521 479.966,55.927 479.966,105.5Z" style="fill:rgb(254,254,254);"/>
            <path d="M79.966,408.5C80.156,397.476 80.035,397.54 80.035,386.5C80.035,360.767 78.024,351.633 89.502,351.967C92.088,352.043 92.084,352.035 337.5,352.035C425.868,352.035 426.255,351.771 429.141,353.922C432.436,356.377 431.965,357.261 431.965,413.5C431.965,441.855 434.013,448.205 421.5,447.965C419.697,447.931 90.233,448.038 87.455,447.908C78.39,447.483 79.966,438.829 79.966,408.5Z"/>
            <path d="M415.966,408.5C415.966,430.456 416.361,431.658 414.604,431.919C413.893,432.025 101.107,431.938 99.5,431.966C93.795,432.066 96.035,429.188 96.034,423.5C96.032,373.972 96.059,374.02 95.966,370.505C95.885,367.47 97.636,368.034 128.5,368.034C223.167,368.034 317.834,368.034 412.5,368.034C418.222,367.959 415.965,370.806 415.966,376.5L415.966,408.5Z" style="fill:white;"/>
            <path d="M79.966,255.5C80.232,243.927 79.768,169.504 80.218,166.438C81.335,158.84 85.021,160.035 129.5,160.035C217.868,160.035 218.255,159.771 221.141,161.922C224.425,164.37 223.965,165.25 223.965,225.5C223.965,267.002 224.985,269.297 218.5,271.501C214.807,272.756 100.74,272.03 90.5,271.965C78.2,271.887 79.979,264.074 79.966,255.5Z"/>
            <path d="M252.5,96.034C245.806,95.9 245.101,95.812 244.463,95.733C216.794,92.281 217.096,47.402 249.501,47.966C258.836,48.129 434.115,47.987 438.502,48.035C470.093,48.38 471.575,87.979 446.392,95.101C442.679,96.152 442.626,96.034 252.5,96.034Z"/>
            <path d="M207.966,206.5C207.966,254.766 208.197,255.563 206.604,255.919C206.138,256.023 102.575,255.939 99.5,255.966C93.798,256.015 96.035,253.193 96.034,247.5C96.031,177.117 95.989,176.997 96.483,176.483C97.4,175.528 180.823,176.24 204.5,176.034C209.596,175.99 207.946,178.382 207.966,183.5L207.966,206.5Z" style="fill:white;"/>
            <path d="M79.966,323.5C80.572,305.924 78.263,293.334 82.855,289.917C85.881,287.666 86.232,288.035 123.5,288.035C171.027,288.035 172.822,287.213 175.171,292.654C176.245,295.141 176.195,295.237 175.963,326.504C175.879,337.901 168.541,335.965 144.5,335.965C85.545,335.965 84.772,336.418 81.922,333.14C78.516,329.22 80.181,328.629 79.966,323.5Z"/>
            <path d="M207.966,323.5C208.572,305.924 206.263,293.334 210.855,289.917C213.881,287.666 214.232,288.035 251.5,288.035C299.027,288.035 300.822,287.213 303.171,292.654C304.245,295.141 304.195,295.237 303.963,326.504C303.879,337.901 296.541,335.965 272.5,335.965C213.545,335.965 212.772,336.418 209.922,333.14C206.516,329.22 208.181,328.629 207.966,323.5Z"/>
            <path d="M335.966,323.5C336.572,305.924 334.263,293.334 338.855,289.917C341.881,287.666 342.232,288.035 379.5,288.035C427.027,288.035 428.822,287.213 431.171,292.654C432.245,295.141 432.195,295.237 431.963,326.504C431.879,337.901 424.541,335.965 400.5,335.965C341.545,335.965 340.772,336.418 337.922,333.14C334.516,329.22 336.181,328.629 335.966,323.5Z"/>
            <path d="M252.5,64.034C441.593,64.034 441.712,63.937 443.348,64.824C451.098,69.03 448.532,79.739 439.518,79.953C436.548,80.024 255.169,79.87 249.502,80.033C236.718,80.402 238.167,64.374 247.455,64.09C249.136,64.038 250.819,64.086 252.5,64.034Z" style="fill:white;"/>
            <path d="M292.5,224.034C280.167,223.822 268.749,224.054 264.482,223.953C254.306,223.713 253.543,211.161 261.495,208.487C265.68,207.08 408.7,207.956 421.5,208.035C436.222,208.125 432.758,220.591 427.344,223.168C425.288,224.146 425.168,224.034 292.5,224.034Z"/>
            <path d="M296.5,192.034C271.812,191.183 260.871,194.792 256.824,187.347C255.288,184.521 255.947,178.353 261.495,176.487C265.68,175.08 408.7,175.956 421.5,176.035C436.222,176.125 432.758,188.591 427.344,191.168C425.287,192.147 425.166,192.034 296.5,192.034Z"/>
            <path d="M419.5,256.034C412.459,255.872 273.597,256.01 266.5,255.965C251.513,255.87 255.076,242.645 261.495,240.487C265.68,239.08 408.7,239.956 421.5,240.035C422.658,240.042 435.017,240.118 431.501,250.5C429.174,257.371 420.167,256.018 419.5,256.034Z"/>
            <path d="M72.506,95.938C33.911,93.741 45.575,40.303 78.384,48.915C102.496,55.243 102.489,93.902 72.506,95.938Z"/>
            <path d="M128.506,95.938C89.911,93.741 101.575,40.303 134.384,48.915C158.496,55.243 158.489,93.902 128.506,95.938Z"/>
            <path d="M184.506,95.938C145.911,93.741 157.575,40.303 190.384,48.915C214.496,55.243 214.489,93.902 184.506,95.938Z"/>
            <path d="M159.966,315.5C159.857,316.477 160.126,317.472 160.017,318.448C159.795,320.438 158.566,319.526 99.5,319.966C94.383,320.004 96.056,317.602 96.034,312.5C96.022,309.62 94.844,304.059 98.488,304.035C103.284,304.003 156.24,303.654 158.448,303.983C160.684,304.315 159.952,312.59 159.966,315.5Z" style="fill:white;"/>
            <path d="M287.966,315.5C287.857,316.477 288.126,317.472 288.017,318.448C287.795,320.438 286.566,319.526 227.5,319.966C222.383,320.004 224.056,317.602 224.034,312.5C224.022,309.62 222.844,304.059 226.488,304.035C231.284,304.003 284.24,303.654 286.448,303.983C288.684,304.315 287.952,312.59 287.966,315.5Z" style="fill:white;"/>
            <path d="M415.966,315.5C415.577,318.982 416.281,319.812 414.604,319.919C413.271,320.004 357.443,319.951 355.5,319.966C350.383,320.004 352.056,317.602 352.034,312.5C352.022,309.62 350.844,304.059 354.488,304.035C359.284,304.003 412.24,303.654 414.448,303.983C416.684,304.315 415.952,312.59 415.966,315.5Z" style="fill:white;"/>
            <path d="M64.087,71.471C66.217,60.563 76.142,64.255 78.077,66.859C86.473,78.159 64.998,87.158 64.087,71.471Z" style="fill:white;"/>
            <path d="M120.087,71.471C122.217,60.563 132.142,64.255 134.077,66.859C142.473,78.159 120.998,87.158 120.087,71.471Z" style="fill:white;"/>
            <path d="M176.087,71.471C178.217,60.563 188.142,64.255 190.077,66.859C198.473,78.159 176.998,87.158 176.087,71.471Z" style="fill:white;"/>
        </g>
    </g>
</svg>
